<svg width="100" height="100" viewBox="0 0 100 100" fill="none" xmlns="http://www.w3.org/2000/svg">
<path d="M46.1415 10.971C47.4748 7.45433 52.5207 7.45433 53.8582 10.971L62.4832 34.8627C63.0873 36.446 64.6248 37.5002 66.3415 37.5002H87.5373C91.454 37.5002 93.1623 42.3752 90.0832 44.7627L74.9998 58.3335C74.3242 58.8529 73.8304 59.573 73.5894 60.3904C73.3483 61.2078 73.3724 62.0806 73.6582 62.8835L79.1665 86.2293C80.5082 89.9793 76.1665 93.2002 72.8832 90.8918L52.3957 77.8918C51.694 77.3987 50.8574 77.1341 49.9998 77.1341C49.1423 77.1341 48.3056 77.3987 47.604 77.8918L27.1165 90.8918C23.8373 93.2002 19.4915 89.9752 20.8332 86.2293L26.3415 62.8835C26.6272 62.0806 26.6513 61.2078 26.4103 60.3904C26.1692 59.573 25.6755 58.8529 24.9998 58.3335L9.9165 44.7627C6.83316 42.3752 8.54983 37.5002 12.4582 37.5002H33.654C34.4885 37.5029 35.3043 37.2523 35.9932 36.7813C36.6822 36.3103 37.2119 35.6413 37.5123 34.8627L46.1373 10.971H46.1415Z" stroke="black" stroke-width="2" stroke-linecap="round" stroke-linejoin="round"/>
</svg>
